<mxfile host="app.diagrams.net" modified="2024-05-23T21:46:02.727Z" agent="Mozilla/5.0 (Windows NT 10.0; Win64; x64) AppleWebKit/537.36 (KHTML, like Gecko) Chrome/124.0.0.0 Safari/537.36" etag="KtT9Lnx9NrLtVQuVmLHO" version="24.4.6" type="device">
  <diagram id="C5RBs43oDa-KdzZeNtuy" name="Page-1">
    <mxGraphModel dx="2901" dy="1106" grid="1" gridSize="10" guides="1" tooltips="1" connect="1" arrows="1" fold="1" page="1" pageScale="1" pageWidth="827" pageHeight="1169" math="0" shadow="0">
      <root>
        <mxCell id="WIyWlLk6GJQsqaUBKTNV-0" />
        <mxCell id="WIyWlLk6GJQsqaUBKTNV-1" parent="WIyWlLk6GJQsqaUBKTNV-0" />
        <mxCell id="NVg4hNQfOcSICtv2Q7U3-38" value="package" style="shape=folder;fontStyle=1;spacingTop=10;tabWidth=40;tabHeight=14;tabPosition=left;html=1;whiteSpace=wrap;noLabel=1;backgroundOutline=0;shadow=0;gradientColor=none;fillColor=#E6E6E6;" vertex="1" parent="WIyWlLk6GJQsqaUBKTNV-1">
          <mxGeometry x="-730" y="250" width="620" height="620" as="geometry" />
        </mxCell>
        <mxCell id="NVg4hNQfOcSICtv2Q7U3-0" value="&lt;p style=&quot;margin:0px;margin-top:4px;text-align:center;&quot;&gt;&lt;b&gt;GeneratorClass&lt;/b&gt;&lt;br&gt;&lt;/p&gt;&lt;hr size=&quot;1&quot; style=&quot;border-style:solid;&quot;&gt;&lt;div style=&quot;height:2px;&quot;&gt;&lt;/div&gt;" style="verticalAlign=top;align=left;overflow=fill;html=1;whiteSpace=wrap;fillColor=#d5e8d4;strokeColor=#82b366;" vertex="1" parent="WIyWlLk6GJQsqaUBKTNV-1">
          <mxGeometry x="-490" y="585" width="140" height="60" as="geometry" />
        </mxCell>
        <mxCell id="NVg4hNQfOcSICtv2Q7U3-1" value="«interface»&lt;br&gt;&lt;b&gt;generate_MJCF&lt;/b&gt;" style="html=1;whiteSpace=wrap;fillColor=#dae8fc;strokeColor=#6c8ebf;" vertex="1" parent="WIyWlLk6GJQsqaUBKTNV-1">
          <mxGeometry x="-480.5" y="810" width="121" height="50" as="geometry" />
        </mxCell>
        <mxCell id="NVg4hNQfOcSICtv2Q7U3-3" value="" style="endArrow=none;html=1;rounded=0;entryX=0.5;entryY=1;entryDx=0;entryDy=0;exitX=0.5;exitY=0;exitDx=0;exitDy=0;" edge="1" parent="WIyWlLk6GJQsqaUBKTNV-1" source="NVg4hNQfOcSICtv2Q7U3-1" target="NVg4hNQfOcSICtv2Q7U3-4">
          <mxGeometry width="50" height="50" relative="1" as="geometry">
            <mxPoint x="-410" y="800" as="sourcePoint" />
            <mxPoint x="-370" y="550" as="targetPoint" />
          </mxGeometry>
        </mxCell>
        <mxCell id="NVg4hNQfOcSICtv2Q7U3-4" value="«interface»&lt;br&gt;&lt;b&gt;construct_tree&lt;/b&gt;" style="html=1;whiteSpace=wrap;fillColor=#dae8fc;strokeColor=#6c8ebf;" vertex="1" parent="WIyWlLk6GJQsqaUBKTNV-1">
          <mxGeometry x="-480" y="740" width="120" height="50" as="geometry" />
        </mxCell>
        <mxCell id="NVg4hNQfOcSICtv2Q7U3-5" value="" style="endArrow=none;html=1;rounded=0;entryX=0.5;entryY=1;entryDx=0;entryDy=0;exitX=0.5;exitY=0;exitDx=0;exitDy=0;" edge="1" parent="WIyWlLk6GJQsqaUBKTNV-1" source="NVg4hNQfOcSICtv2Q7U3-4" target="NVg4hNQfOcSICtv2Q7U3-12">
          <mxGeometry width="50" height="50" relative="1" as="geometry">
            <mxPoint x="-620" y="640" as="sourcePoint" />
            <mxPoint x="-570" y="590" as="targetPoint" />
          </mxGeometry>
        </mxCell>
        <mxCell id="NVg4hNQfOcSICtv2Q7U3-12" value="«interface»&lt;br&gt;&lt;b&gt;_generate_map&lt;/b&gt;" style="html=1;whiteSpace=wrap;fillColor=#dae8fc;strokeColor=#6c8ebf;" vertex="1" parent="WIyWlLk6GJQsqaUBKTNV-1">
          <mxGeometry x="-480" y="670" width="120" height="50" as="geometry" />
        </mxCell>
        <mxCell id="NVg4hNQfOcSICtv2Q7U3-13" value="" style="endArrow=none;html=1;rounded=0;exitX=0.5;exitY=0;exitDx=0;exitDy=0;" edge="1" parent="WIyWlLk6GJQsqaUBKTNV-1" source="NVg4hNQfOcSICtv2Q7U3-12" target="NVg4hNQfOcSICtv2Q7U3-0">
          <mxGeometry width="50" height="50" relative="1" as="geometry">
            <mxPoint x="-610" y="720" as="sourcePoint" />
            <mxPoint x="-560" y="670" as="targetPoint" />
          </mxGeometry>
        </mxCell>
        <mxCell id="NVg4hNQfOcSICtv2Q7U3-14" value="Use" style="endArrow=open;endSize=12;dashed=1;html=1;rounded=0;entryX=0;entryY=0.5;entryDx=0;entryDy=0;exitX=1;exitY=0.5;exitDx=0;exitDy=0;" edge="1" parent="WIyWlLk6GJQsqaUBKTNV-1" source="NVg4hNQfOcSICtv2Q7U3-29" target="NVg4hNQfOcSICtv2Q7U3-32">
          <mxGeometry width="160" relative="1" as="geometry">
            <mxPoint x="-410" y="540" as="sourcePoint" />
            <mxPoint x="-400" y="500" as="targetPoint" />
          </mxGeometry>
        </mxCell>
        <mxCell id="NVg4hNQfOcSICtv2Q7U3-15" value="" style="endArrow=diamondThin;endFill=1;endSize=24;html=1;rounded=0;entryX=0.25;entryY=0;entryDx=0;entryDy=0;exitX=0.5;exitY=1;exitDx=0;exitDy=0;" edge="1" parent="WIyWlLk6GJQsqaUBKTNV-1" source="NVg4hNQfOcSICtv2Q7U3-29" target="NVg4hNQfOcSICtv2Q7U3-0">
          <mxGeometry width="160" relative="1" as="geometry">
            <mxPoint x="-510" y="530" as="sourcePoint" />
            <mxPoint x="-450" y="480" as="targetPoint" />
          </mxGeometry>
        </mxCell>
        <mxCell id="NVg4hNQfOcSICtv2Q7U3-16" value="" style="endArrow=diamondThin;endFill=1;endSize=24;html=1;rounded=0;entryX=0.75;entryY=0;entryDx=0;entryDy=0;exitX=0.5;exitY=1;exitDx=0;exitDy=0;" edge="1" parent="WIyWlLk6GJQsqaUBKTNV-1" source="NVg4hNQfOcSICtv2Q7U3-32" target="NVg4hNQfOcSICtv2Q7U3-0">
          <mxGeometry width="160" relative="1" as="geometry">
            <mxPoint x="-330" y="530" as="sourcePoint" />
            <mxPoint x="-270" y="470" as="targetPoint" />
          </mxGeometry>
        </mxCell>
        <mxCell id="NVg4hNQfOcSICtv2Q7U3-17" value="" style="endArrow=diamondThin;endFill=1;endSize=24;html=1;rounded=0;entryX=1;entryY=0.5;entryDx=0;entryDy=0;exitX=0;exitY=0.5;exitDx=0;exitDy=0;" edge="1" parent="WIyWlLk6GJQsqaUBKTNV-1" source="NVg4hNQfOcSICtv2Q7U3-30" target="NVg4hNQfOcSICtv2Q7U3-0">
          <mxGeometry width="160" relative="1" as="geometry">
            <mxPoint x="-300" y="615" as="sourcePoint" />
            <mxPoint x="-120" y="580" as="targetPoint" />
          </mxGeometry>
        </mxCell>
        <mxCell id="NVg4hNQfOcSICtv2Q7U3-19" value="" style="endArrow=diamondThin;endFill=1;endSize=24;html=1;rounded=0;entryX=0.5;entryY=0;entryDx=0;entryDy=0;exitX=0.25;exitY=1;exitDx=0;exitDy=0;" edge="1" parent="WIyWlLk6GJQsqaUBKTNV-1" source="NVg4hNQfOcSICtv2Q7U3-31" target="NVg4hNQfOcSICtv2Q7U3-29">
          <mxGeometry width="160" relative="1" as="geometry">
            <mxPoint x="-455" y="410" as="sourcePoint" />
            <mxPoint x="-510" y="470" as="targetPoint" />
          </mxGeometry>
        </mxCell>
        <mxCell id="NVg4hNQfOcSICtv2Q7U3-20" value="" style="endArrow=diamondThin;endFill=1;endSize=24;html=1;rounded=0;entryX=0.5;entryY=0;entryDx=0;entryDy=0;exitX=0.75;exitY=1;exitDx=0;exitDy=0;" edge="1" parent="WIyWlLk6GJQsqaUBKTNV-1" source="NVg4hNQfOcSICtv2Q7U3-31" target="NVg4hNQfOcSICtv2Q7U3-32">
          <mxGeometry width="160" relative="1" as="geometry">
            <mxPoint x="-385" y="410" as="sourcePoint" />
            <mxPoint x="-330" y="470" as="targetPoint" />
          </mxGeometry>
        </mxCell>
        <mxCell id="NVg4hNQfOcSICtv2Q7U3-21" value="«interface»&lt;br&gt;&lt;b&gt;construct_tree&lt;/b&gt;" style="html=1;whiteSpace=wrap;fillColor=#dae8fc;strokeColor=#6c8ebf;" vertex="1" parent="WIyWlLk6GJQsqaUBKTNV-1">
          <mxGeometry x="-720" y="475" width="120" height="50" as="geometry" />
        </mxCell>
        <mxCell id="NVg4hNQfOcSICtv2Q7U3-22" value="«interface»&lt;br&gt;&lt;b&gt;construct_tree&lt;/b&gt;" style="html=1;whiteSpace=wrap;fillColor=#dae8fc;strokeColor=#6c8ebf;" vertex="1" parent="WIyWlLk6GJQsqaUBKTNV-1">
          <mxGeometry x="-240" y="475" width="120" height="50" as="geometry" />
        </mxCell>
        <mxCell id="NVg4hNQfOcSICtv2Q7U3-23" value="«interface»&lt;br&gt;&lt;b&gt;construct_tree&lt;/b&gt;" style="html=1;whiteSpace=wrap;fillColor=#dae8fc;strokeColor=#6c8ebf;" vertex="1" parent="WIyWlLk6GJQsqaUBKTNV-1">
          <mxGeometry x="-480.5" y="280" width="120" height="50" as="geometry" />
        </mxCell>
        <mxCell id="NVg4hNQfOcSICtv2Q7U3-24" value="«interface»&lt;br&gt;&lt;b&gt;construct_tree&lt;/b&gt;" style="html=1;whiteSpace=wrap;fillColor=#dae8fc;strokeColor=#6c8ebf;" vertex="1" parent="WIyWlLk6GJQsqaUBKTNV-1">
          <mxGeometry x="-280" y="670" width="120" height="50" as="geometry" />
        </mxCell>
        <mxCell id="NVg4hNQfOcSICtv2Q7U3-25" value="" style="endArrow=none;html=1;rounded=0;entryX=1;entryY=0.5;entryDx=0;entryDy=0;exitX=0;exitY=0.5;exitDx=0;exitDy=0;" edge="1" parent="WIyWlLk6GJQsqaUBKTNV-1" source="NVg4hNQfOcSICtv2Q7U3-29" target="NVg4hNQfOcSICtv2Q7U3-21">
          <mxGeometry width="50" height="50" relative="1" as="geometry">
            <mxPoint x="-580" y="500" as="sourcePoint" />
            <mxPoint x="-560" y="610" as="targetPoint" />
          </mxGeometry>
        </mxCell>
        <mxCell id="NVg4hNQfOcSICtv2Q7U3-26" value="" style="endArrow=none;html=1;rounded=0;entryX=0.5;entryY=0;entryDx=0;entryDy=0;exitX=0.5;exitY=1;exitDx=0;exitDy=0;" edge="1" parent="WIyWlLk6GJQsqaUBKTNV-1" source="NVg4hNQfOcSICtv2Q7U3-30" target="NVg4hNQfOcSICtv2Q7U3-24">
          <mxGeometry width="50" height="50" relative="1" as="geometry">
            <mxPoint x="-230" y="645" as="sourcePoint" />
            <mxPoint x="-550" y="620" as="targetPoint" />
          </mxGeometry>
        </mxCell>
        <mxCell id="NVg4hNQfOcSICtv2Q7U3-27" value="" style="endArrow=none;html=1;rounded=0;entryX=0;entryY=0.5;entryDx=0;entryDy=0;exitX=1;exitY=0.5;exitDx=0;exitDy=0;" edge="1" parent="WIyWlLk6GJQsqaUBKTNV-1" source="NVg4hNQfOcSICtv2Q7U3-32" target="NVg4hNQfOcSICtv2Q7U3-22">
          <mxGeometry width="50" height="50" relative="1" as="geometry">
            <mxPoint x="-260" y="500" as="sourcePoint" />
            <mxPoint x="-540" y="630" as="targetPoint" />
          </mxGeometry>
        </mxCell>
        <mxCell id="NVg4hNQfOcSICtv2Q7U3-28" value="" style="endArrow=none;html=1;rounded=0;entryX=0.5;entryY=0;entryDx=0;entryDy=0;exitX=0.5;exitY=1;exitDx=0;exitDy=0;" edge="1" parent="WIyWlLk6GJQsqaUBKTNV-1" source="NVg4hNQfOcSICtv2Q7U3-23" target="NVg4hNQfOcSICtv2Q7U3-31">
          <mxGeometry width="50" height="50" relative="1" as="geometry">
            <mxPoint x="-580" y="690" as="sourcePoint" />
            <mxPoint x="-420" y="350" as="targetPoint" />
          </mxGeometry>
        </mxCell>
        <mxCell id="NVg4hNQfOcSICtv2Q7U3-29" value="&lt;p style=&quot;margin:0px;margin-top:4px;text-align:center;&quot;&gt;&lt;b&gt;Car&lt;/b&gt;&lt;br&gt;&lt;/p&gt;&lt;hr size=&quot;1&quot; style=&quot;border-style:solid;&quot;&gt;&lt;div style=&quot;height:2px;&quot;&gt;&lt;/div&gt;" style="verticalAlign=top;align=left;overflow=fill;html=1;whiteSpace=wrap;fillColor=#d5e8d4;strokeColor=#82b366;" vertex="1" parent="WIyWlLk6GJQsqaUBKTNV-1">
          <mxGeometry x="-580" y="470" width="140" height="60" as="geometry" />
        </mxCell>
        <mxCell id="NVg4hNQfOcSICtv2Q7U3-30" value="&lt;p style=&quot;margin:0px;margin-top:4px;text-align:center;&quot;&gt;&lt;b&gt;ParkingSpot&lt;/b&gt;&lt;br&gt;&lt;/p&gt;&lt;hr size=&quot;1&quot; style=&quot;border-style:solid;&quot;&gt;&lt;div style=&quot;height:2px;&quot;&gt;&lt;/div&gt;" style="verticalAlign=top;align=left;overflow=fill;html=1;whiteSpace=wrap;fillColor=#d5e8d4;strokeColor=#82b366;" vertex="1" parent="WIyWlLk6GJQsqaUBKTNV-1">
          <mxGeometry x="-290" y="585" width="140" height="60" as="geometry" />
        </mxCell>
        <mxCell id="NVg4hNQfOcSICtv2Q7U3-31" value="&lt;p style=&quot;margin:0px;margin-top:4px;text-align:center;&quot;&gt;&lt;b&gt;Wheel&lt;/b&gt;&lt;br&gt;&lt;/p&gt;&lt;hr size=&quot;1&quot; style=&quot;border-style:solid;&quot;&gt;&lt;div style=&quot;height:2px;&quot;&gt;&lt;/div&gt;" style="verticalAlign=top;align=left;overflow=fill;html=1;whiteSpace=wrap;fillColor=#d5e8d4;strokeColor=#82b366;" vertex="1" parent="WIyWlLk6GJQsqaUBKTNV-1">
          <mxGeometry x="-490" y="360" width="140" height="60" as="geometry" />
        </mxCell>
        <mxCell id="NVg4hNQfOcSICtv2Q7U3-32" value="&lt;p style=&quot;margin:0px;margin-top:4px;text-align:center;&quot;&gt;&lt;b&gt;Trailer&lt;/b&gt;&lt;br&gt;&lt;/p&gt;&lt;hr size=&quot;1&quot; style=&quot;border-style:solid;&quot;&gt;&lt;div style=&quot;height:2px;&quot;&gt;&lt;/div&gt;" style="verticalAlign=top;align=left;overflow=fill;html=1;whiteSpace=wrap;fillColor=#d5e8d4;strokeColor=#82b366;" vertex="1" parent="WIyWlLk6GJQsqaUBKTNV-1">
          <mxGeometry x="-400" y="470" width="140" height="60" as="geometry" />
        </mxCell>
      </root>
    </mxGraphModel>
  </diagram>
</mxfile>
